<mxfile host="Electron" modified="2023-11-23T07:40:48.950Z" agent="Mozilla/5.0 (Macintosh; Intel Mac OS X 10_15_7) AppleWebKit/537.36 (KHTML, like Gecko) draw.io/22.1.2 Chrome/114.0.5735.289 Electron/25.9.4 Safari/537.36" etag="t4OTANFoppMqxkK80eGm" version="22.1.2" type="device">
  <diagram name="Page-1" id="wG-I_J7Hg1ZwuKvTdU-a">
    <mxGraphModel dx="1406" dy="927" grid="1" gridSize="10" guides="1" tooltips="1" connect="1" arrows="1" fold="1" page="1" pageScale="1" pageWidth="1100" pageHeight="850" math="0" shadow="0">
      <root>
        <mxCell id="0" />
        <mxCell id="1" parent="0" />
        <mxCell id="9zQdDdOwwxImIPviSrbJ-1" value="Flight" style="rounded=0;whiteSpace=wrap;html=1;" vertex="1" parent="1">
          <mxGeometry x="460" y="327.5" width="90" height="30" as="geometry" />
        </mxCell>
        <mxCell id="9zQdDdOwwxImIPviSrbJ-2" value="Aircraft" style="rounded=0;whiteSpace=wrap;html=1;" vertex="1" parent="1">
          <mxGeometry x="875" y="327.5" width="90" height="30" as="geometry" />
        </mxCell>
        <mxCell id="9zQdDdOwwxImIPviSrbJ-3" value="Seat" style="rounded=0;whiteSpace=wrap;html=1;" vertex="1" parent="1">
          <mxGeometry x="50" y="612.5" width="80" height="30" as="geometry" />
        </mxCell>
        <mxCell id="9zQdDdOwwxImIPviSrbJ-4" value="TIcket" style="rounded=0;whiteSpace=wrap;html=1;" vertex="1" parent="1">
          <mxGeometry x="480" y="615" width="80" height="30" as="geometry" />
        </mxCell>
        <mxCell id="9zQdDdOwwxImIPviSrbJ-5" value="User" style="rounded=0;whiteSpace=wrap;html=1;" vertex="1" parent="1">
          <mxGeometry x="880" y="612.5" width="80" height="30" as="geometry" />
        </mxCell>
        <mxCell id="9zQdDdOwwxImIPviSrbJ-6" value="System Admin" style="rounded=0;whiteSpace=wrap;html=1;" vertex="1" parent="1">
          <mxGeometry x="1080" y="70" width="100" height="40" as="geometry" />
        </mxCell>
        <mxCell id="9zQdDdOwwxImIPviSrbJ-7" value="Crew" style="rounded=0;whiteSpace=wrap;html=1;" vertex="1" parent="1">
          <mxGeometry x="345" y="40" width="90" height="30" as="geometry" />
        </mxCell>
        <mxCell id="9zQdDdOwwxImIPviSrbJ-8" value="Flight Attendant" style="rounded=0;whiteSpace=wrap;html=1;" vertex="1" parent="1">
          <mxGeometry x="10" y="280" width="100" height="40" as="geometry" />
        </mxCell>
        <mxCell id="9zQdDdOwwxImIPviSrbJ-9" value="Has" style="rhombus;whiteSpace=wrap;html=1;fillColor=#f5f5f5;fontColor=#333333;strokeColor=#666666;" vertex="1" parent="1">
          <mxGeometry x="200" y="425" width="100" height="55" as="geometry" />
        </mxCell>
        <mxCell id="9zQdDdOwwxImIPviSrbJ-10" value="Reserves" style="rhombus;whiteSpace=wrap;html=1;fillColor=#f5f5f5;fontColor=#333333;strokeColor=#666666;" vertex="1" parent="1">
          <mxGeometry x="260" y="600" width="100" height="55" as="geometry" />
        </mxCell>
        <mxCell id="9zQdDdOwwxImIPviSrbJ-11" value="Buys" style="rhombus;whiteSpace=wrap;html=1;fillColor=#f5f5f5;fontColor=#333333;strokeColor=#666666;" vertex="1" parent="1">
          <mxGeometry x="680" y="600" width="100" height="55" as="geometry" />
        </mxCell>
        <mxCell id="9zQdDdOwwxImIPviSrbJ-12" value="On" style="rhombus;whiteSpace=wrap;html=1;fillColor=#f5f5f5;fontColor=#333333;strokeColor=#666666;" vertex="1" parent="1">
          <mxGeometry x="660" y="315" width="100" height="55" as="geometry" />
        </mxCell>
        <mxCell id="9zQdDdOwwxImIPviSrbJ-13" value="Works_On" style="rhombus;whiteSpace=wrap;html=1;fillColor=#f5f5f5;fontColor=#333333;strokeColor=#666666;" vertex="1" parent="1">
          <mxGeometry x="200" y="272.5" width="100" height="55" as="geometry" />
        </mxCell>
        <mxCell id="9zQdDdOwwxImIPviSrbJ-14" value="Operates" style="rhombus;whiteSpace=wrap;html=1;fillColor=#f5f5f5;fontColor=#333333;strokeColor=#666666;" vertex="1" parent="1">
          <mxGeometry x="340" y="140" width="100" height="55" as="geometry" />
        </mxCell>
        <mxCell id="9zQdDdOwwxImIPviSrbJ-15" value="" style="endArrow=none;html=1;rounded=0;entryX=0.5;entryY=1;entryDx=0;entryDy=0;exitX=1;exitY=0.5;exitDx=0;exitDy=0;" edge="1" parent="1" source="9zQdDdOwwxImIPviSrbJ-16" target="9zQdDdOwwxImIPviSrbJ-6">
          <mxGeometry width="50" height="50" relative="1" as="geometry">
            <mxPoint x="930" y="140" as="sourcePoint" />
            <mxPoint x="600" y="490" as="targetPoint" />
          </mxGeometry>
        </mxCell>
        <mxCell id="9zQdDdOwwxImIPviSrbJ-16" value="Manages" style="rhombus;whiteSpace=wrap;html=1;fillColor=#f5f5f5;fontColor=#333333;strokeColor=#666666;" vertex="1" parent="1">
          <mxGeometry x="700" y="170" width="100" height="55" as="geometry" />
        </mxCell>
        <mxCell id="9zQdDdOwwxImIPviSrbJ-17" value="" style="endArrow=none;html=1;rounded=0;entryX=0.5;entryY=0;entryDx=0;entryDy=0;exitX=0;exitY=1;exitDx=0;exitDy=0;" edge="1" parent="1" source="9zQdDdOwwxImIPviSrbJ-16" target="9zQdDdOwwxImIPviSrbJ-1">
          <mxGeometry width="50" height="50" relative="1" as="geometry">
            <mxPoint x="755" y="154" as="sourcePoint" />
            <mxPoint x="1140" y="120" as="targetPoint" />
          </mxGeometry>
        </mxCell>
        <mxCell id="9zQdDdOwwxImIPviSrbJ-18" value="" style="endArrow=none;html=1;rounded=0;entryX=0;entryY=0.5;entryDx=0;entryDy=0;exitX=1;exitY=0.5;exitDx=0;exitDy=0;" edge="1" parent="1" source="9zQdDdOwwxImIPviSrbJ-1" target="9zQdDdOwwxImIPviSrbJ-12">
          <mxGeometry width="50" height="50" relative="1" as="geometry">
            <mxPoint x="765" y="164" as="sourcePoint" />
            <mxPoint x="1150" y="130" as="targetPoint" />
          </mxGeometry>
        </mxCell>
        <mxCell id="9zQdDdOwwxImIPviSrbJ-19" value="" style="endArrow=none;html=1;rounded=0;entryX=0;entryY=0.5;entryDx=0;entryDy=0;exitX=1;exitY=0.5;exitDx=0;exitDy=0;" edge="1" parent="1" source="9zQdDdOwwxImIPviSrbJ-12" target="9zQdDdOwwxImIPviSrbJ-2">
          <mxGeometry width="50" height="50" relative="1" as="geometry">
            <mxPoint x="720" y="280" as="sourcePoint" />
            <mxPoint x="840" y="280" as="targetPoint" />
          </mxGeometry>
        </mxCell>
        <mxCell id="9zQdDdOwwxImIPviSrbJ-20" value="" style="endArrow=none;html=1;rounded=0;exitX=0.5;exitY=1;exitDx=0;exitDy=0;entryX=1;entryY=0;entryDx=0;entryDy=0;" edge="1" parent="1" source="9zQdDdOwwxImIPviSrbJ-6" target="9zQdDdOwwxImIPviSrbJ-21">
          <mxGeometry width="50" height="50" relative="1" as="geometry">
            <mxPoint x="520" y="320" as="sourcePoint" />
            <mxPoint x="1020" y="190" as="targetPoint" />
          </mxGeometry>
        </mxCell>
        <mxCell id="9zQdDdOwwxImIPviSrbJ-21" value="Manages" style="rhombus;whiteSpace=wrap;html=1;fillColor=#f5f5f5;fontColor=#333333;strokeColor=#666666;" vertex="1" parent="1">
          <mxGeometry x="965" y="195" width="100" height="55" as="geometry" />
        </mxCell>
        <mxCell id="9zQdDdOwwxImIPviSrbJ-22" value="" style="endArrow=none;html=1;rounded=0;entryX=0.5;entryY=0;entryDx=0;entryDy=0;exitX=0;exitY=1;exitDx=0;exitDy=0;" edge="1" parent="1" source="9zQdDdOwwxImIPviSrbJ-21" target="9zQdDdOwwxImIPviSrbJ-2">
          <mxGeometry width="50" height="50" relative="1" as="geometry">
            <mxPoint x="930" y="240" as="sourcePoint" />
            <mxPoint x="1035" y="199" as="targetPoint" />
          </mxGeometry>
        </mxCell>
        <mxCell id="9zQdDdOwwxImIPviSrbJ-23" value="Manages" style="rhombus;whiteSpace=wrap;html=1;fillColor=#f5f5f5;fontColor=#333333;strokeColor=#666666;" vertex="1" parent="1">
          <mxGeometry x="1080" y="450" width="100" height="55" as="geometry" />
        </mxCell>
        <mxCell id="9zQdDdOwwxImIPviSrbJ-24" value="" style="endArrow=none;html=1;rounded=0;entryX=0.5;entryY=0;entryDx=0;entryDy=0;exitX=0.5;exitY=1;exitDx=0;exitDy=0;" edge="1" parent="1" source="9zQdDdOwwxImIPviSrbJ-6" target="9zQdDdOwwxImIPviSrbJ-23">
          <mxGeometry width="50" height="50" relative="1" as="geometry">
            <mxPoint x="1150" y="140" as="sourcePoint" />
            <mxPoint x="1035" y="199" as="targetPoint" />
          </mxGeometry>
        </mxCell>
        <mxCell id="9zQdDdOwwxImIPviSrbJ-25" value="" style="endArrow=none;html=1;rounded=0;entryX=1;entryY=0.25;entryDx=0;entryDy=0;exitX=0;exitY=1;exitDx=0;exitDy=0;" edge="1" parent="1" source="9zQdDdOwwxImIPviSrbJ-23" target="9zQdDdOwwxImIPviSrbJ-5">
          <mxGeometry width="50" height="50" relative="1" as="geometry">
            <mxPoint x="1140" y="120" as="sourcePoint" />
            <mxPoint x="1110" y="460" as="targetPoint" />
          </mxGeometry>
        </mxCell>
        <mxCell id="9zQdDdOwwxImIPviSrbJ-27" value="" style="endArrow=none;html=1;rounded=0;entryX=0;entryY=0.5;entryDx=0;entryDy=0;exitX=1;exitY=0.5;exitDx=0;exitDy=0;" edge="1" parent="1" source="9zQdDdOwwxImIPviSrbJ-11" target="9zQdDdOwwxImIPviSrbJ-5">
          <mxGeometry width="50" height="50" relative="1" as="geometry">
            <mxPoint x="730" y="310" as="sourcePoint" />
            <mxPoint x="850" y="310" as="targetPoint" />
          </mxGeometry>
        </mxCell>
        <mxCell id="9zQdDdOwwxImIPviSrbJ-28" value="" style="endArrow=none;html=1;rounded=0;entryX=0;entryY=0.5;entryDx=0;entryDy=0;exitX=1;exitY=0.5;exitDx=0;exitDy=0;" edge="1" parent="1" source="9zQdDdOwwxImIPviSrbJ-4" target="9zQdDdOwwxImIPviSrbJ-11">
          <mxGeometry width="50" height="50" relative="1" as="geometry">
            <mxPoint x="790" y="638" as="sourcePoint" />
            <mxPoint x="890" y="638" as="targetPoint" />
          </mxGeometry>
        </mxCell>
        <mxCell id="9zQdDdOwwxImIPviSrbJ-29" value="" style="endArrow=none;html=1;rounded=0;entryX=0;entryY=0.5;entryDx=0;entryDy=0;exitX=1;exitY=0.5;exitDx=0;exitDy=0;" edge="1" parent="1" source="9zQdDdOwwxImIPviSrbJ-10" target="9zQdDdOwwxImIPviSrbJ-4">
          <mxGeometry width="50" height="50" relative="1" as="geometry">
            <mxPoint x="800" y="648" as="sourcePoint" />
            <mxPoint x="900" y="648" as="targetPoint" />
          </mxGeometry>
        </mxCell>
        <mxCell id="9zQdDdOwwxImIPviSrbJ-30" value="" style="endArrow=none;html=1;rounded=0;entryX=0;entryY=0.5;entryDx=0;entryDy=0;exitX=1;exitY=0.5;exitDx=0;exitDy=0;" edge="1" parent="1" source="9zQdDdOwwxImIPviSrbJ-3" target="9zQdDdOwwxImIPviSrbJ-10">
          <mxGeometry width="50" height="50" relative="1" as="geometry">
            <mxPoint x="810" y="658" as="sourcePoint" />
            <mxPoint x="910" y="658" as="targetPoint" />
          </mxGeometry>
        </mxCell>
        <mxCell id="9zQdDdOwwxImIPviSrbJ-31" value="" style="endArrow=none;html=1;rounded=0;entryX=0;entryY=1;entryDx=0;entryDy=0;exitX=0.5;exitY=0;exitDx=0;exitDy=0;" edge="1" parent="1" source="9zQdDdOwwxImIPviSrbJ-3" target="9zQdDdOwwxImIPviSrbJ-9">
          <mxGeometry width="50" height="50" relative="1" as="geometry">
            <mxPoint x="820" y="668" as="sourcePoint" />
            <mxPoint x="920" y="668" as="targetPoint" />
          </mxGeometry>
        </mxCell>
        <mxCell id="9zQdDdOwwxImIPviSrbJ-32" value="" style="endArrow=none;html=1;rounded=0;entryX=0.5;entryY=1;entryDx=0;entryDy=0;exitX=1;exitY=0;exitDx=0;exitDy=0;" edge="1" parent="1" source="9zQdDdOwwxImIPviSrbJ-9" target="9zQdDdOwwxImIPviSrbJ-1">
          <mxGeometry width="50" height="50" relative="1" as="geometry">
            <mxPoint x="830" y="678" as="sourcePoint" />
            <mxPoint x="930" y="678" as="targetPoint" />
          </mxGeometry>
        </mxCell>
        <mxCell id="9zQdDdOwwxImIPviSrbJ-33" value="" style="endArrow=none;html=1;rounded=0;exitX=1;exitY=0.5;exitDx=0;exitDy=0;entryX=0;entryY=0.5;entryDx=0;entryDy=0;" edge="1" parent="1" source="9zQdDdOwwxImIPviSrbJ-13" target="9zQdDdOwwxImIPviSrbJ-1">
          <mxGeometry width="50" height="50" relative="1" as="geometry">
            <mxPoint x="285" y="449" as="sourcePoint" />
            <mxPoint x="380" y="270" as="targetPoint" />
          </mxGeometry>
        </mxCell>
        <mxCell id="9zQdDdOwwxImIPviSrbJ-34" value="" style="endArrow=none;html=1;rounded=0;exitX=0;exitY=0.5;exitDx=0;exitDy=0;entryX=1;entryY=0.5;entryDx=0;entryDy=0;" edge="1" parent="1" source="9zQdDdOwwxImIPviSrbJ-13" target="9zQdDdOwwxImIPviSrbJ-8">
          <mxGeometry width="50" height="50" relative="1" as="geometry">
            <mxPoint x="310" y="310" as="sourcePoint" />
            <mxPoint x="420" y="310" as="targetPoint" />
          </mxGeometry>
        </mxCell>
        <mxCell id="9zQdDdOwwxImIPviSrbJ-35" value="" style="endArrow=none;html=1;rounded=0;exitX=0.5;exitY=1;exitDx=0;exitDy=0;entryX=0.5;entryY=0;entryDx=0;entryDy=0;" edge="1" parent="1" source="9zQdDdOwwxImIPviSrbJ-7" target="9zQdDdOwwxImIPviSrbJ-14">
          <mxGeometry width="50" height="50" relative="1" as="geometry">
            <mxPoint x="310" y="310" as="sourcePoint" />
            <mxPoint x="420" y="310" as="targetPoint" />
          </mxGeometry>
        </mxCell>
        <mxCell id="9zQdDdOwwxImIPviSrbJ-36" value="" style="endArrow=none;html=1;rounded=0;exitX=0.5;exitY=1;exitDx=0;exitDy=0;entryX=0.5;entryY=0;entryDx=0;entryDy=0;" edge="1" parent="1" source="9zQdDdOwwxImIPviSrbJ-14" target="9zQdDdOwwxImIPviSrbJ-1">
          <mxGeometry width="50" height="50" relative="1" as="geometry">
            <mxPoint x="320" y="320" as="sourcePoint" />
            <mxPoint x="430" y="320" as="targetPoint" />
          </mxGeometry>
        </mxCell>
        <mxCell id="9zQdDdOwwxImIPviSrbJ-37" value="Manages" style="rhombus;whiteSpace=wrap;html=1;fillColor=#f5f5f5;fontColor=#333333;strokeColor=#666666;" vertex="1" parent="1">
          <mxGeometry x="700" y="40" width="100" height="55" as="geometry" />
        </mxCell>
        <mxCell id="9zQdDdOwwxImIPviSrbJ-38" value="" style="endArrow=none;html=1;rounded=0;entryX=0;entryY=0.5;entryDx=0;entryDy=0;exitX=1;exitY=0.5;exitDx=0;exitDy=0;" edge="1" parent="1" source="9zQdDdOwwxImIPviSrbJ-37" target="9zQdDdOwwxImIPviSrbJ-6">
          <mxGeometry width="50" height="50" relative="1" as="geometry">
            <mxPoint x="830" y="198" as="sourcePoint" />
            <mxPoint x="1140" y="120" as="targetPoint" />
          </mxGeometry>
        </mxCell>
        <mxCell id="9zQdDdOwwxImIPviSrbJ-39" value="" style="endArrow=none;html=1;rounded=0;entryX=1;entryY=0.5;entryDx=0;entryDy=0;exitX=0;exitY=0.5;exitDx=0;exitDy=0;" edge="1" parent="1" source="9zQdDdOwwxImIPviSrbJ-37" target="9zQdDdOwwxImIPviSrbJ-7">
          <mxGeometry width="50" height="50" relative="1" as="geometry">
            <mxPoint x="790" y="93" as="sourcePoint" />
            <mxPoint x="1090" y="100" as="targetPoint" />
          </mxGeometry>
        </mxCell>
      </root>
    </mxGraphModel>
  </diagram>
</mxfile>
